
<svg id="visual" viewBox="0 0 900 500" width="100%" height="600" xmlns="http://www.w3.org/2000/svg" xmlns:xlink="http://www.w3.org/1999/xlink" version="1.1"><path d="M0 192L21.5 192.7C43 193.3 86 194.7 128.8 188.5C171.7 182.3 214.3 168.7 257.2 184.7C300 200.7 343 246.3 385.8 253.5C428.7 260.7 471.3 229.3 514.2 222.3C557 215.3 600 232.7 642.8 227.2C685.7 221.7 728.3 193.3 771.2 198.2C814 203 857 241 878.5 260L900 279L900 601L878.5 601C857 601 814 601 771.2 601C728.3 601 685.7 601 642.8 601C600 601 557 601 514.2 601C471.3 601 428.7 601 385.8 601C343 601 300 601 257.2 601C214.3 601 171.7 601 128.8 601C86 601 43 601 21.5 601L0 601Z" fill="#72726e"></path><path d="M0 210L21.5 216.7C43 223.3 86 236.7 128.8 247.5C171.7 258.3 214.3 266.7 257.2 285C300 303.3 343 331.7 385.8 339.8C428.7 348 471.3 336 514.2 331.7C557 327.3 600 330.7 642.8 308.2C685.7 285.7 728.3 237.3 771.2 221.8C814 206.3 857 223.7 878.5 232.3L900 241L900 601L878.5 601C857 601 814 601 771.2 601C728.3 601 685.7 601 642.8 601C600 601 557 601 514.2 601C471.3 601 428.7 601 385.8 601C343 601 300 601 257.2 601C214.3 601 171.7 601 128.8 601C86 601 43 601 21.5 601L0 601Z" fill="#939390"></path><path d="M0 363L21.5 371.7C43 380.3 86 397.7 128.8 405.5C171.7 413.3 214.3 411.7 257.2 399.8C300 388 343 366 385.8 359C428.7 352 471.3 360 514.2 352.3C557 344.7 600 321.3 642.8 321C685.7 320.7 728.3 343.3 771.2 358C814 372.7 857 379.3 878.5 382.7L900 386L900 601L878.5 601C857 601 814 601 771.2 601C728.3 601 685.7 601 642.8 601C600 601 557 601 514.2 601C471.3 601 428.7 601 385.8 601C343 601 300 601 257.2 601C214.3 601 171.7 601 128.8 601C86 601 43 601 21.5 601L0 601Z" fill="#b6b6b4"></path><path d="M0 371L21.5 373.3C43 375.7 86 380.3 128.8 384.7C171.7 389 214.3 393 257.2 391C300 389 343 381 385.8 395.2C428.7 409.3 471.3 445.7 514.2 455.2C557 464.7 600 447.3 642.8 437C685.7 426.7 728.3 423.3 771.2 414.5C814 405.7 857 391.3 878.5 384.2L900 377L900 601L878.5 601C857 601 814 601 771.2 601C728.3 601 685.7 601 642.8 601C600 601 557 601 514.2 601C471.3 601 428.7 601 385.8 601C343 601 300 601 257.2 601C214.3 601 171.7 601 128.8 601C86 601 43 601 21.5 601L0 601Z" fill="#dadad9"></path><path d="M0 540L21.5 540.3C43 540.7 86 541.3 128.8 538.2C171.7 535 214.3 528 257.2 514.2C300 500.3 343 479.7 385.8 474.8C428.7 470 471.3 481 514.2 485.7C557 490.3 600 488.7 642.8 493.8C685.7 499 728.3 511 771.2 507.7C814 504.3 857 485.7 878.5 476.3L900 467L900 601L878.5 601C857 601 814 601 771.2 601C728.3 601 685.7 601 642.8 601C600 601 557 601 514.2 601C471.3 601 428.7 601 385.8 601C343 601 300 601 257.2 601C214.3 601 171.7 601 128.8 601C86 601 43 601 21.5 601L0 601Z" fill="#ffffff"></path></svg>